<svg width="46" height="45" viewBox="0 0 46 45" fill="none" xmlns="http://www.w3.org/2000/svg">
<path fill-rule="evenodd" clip-rule="evenodd" d="M42.1075 22.5C42.1075 21.5632 42.8667 20.804 43.8034 20.804C44.7402 20.804 45.4994 21.5633 45.4994 22.5C45.4994 34.9061 35.4056 45 22.9995 45C10.5929 45 0.499512 34.9061 0.499512 22.5C0.499512 10.0934 10.5929 0 22.9995 0C23.9362 0 24.6955 0.759199 24.6955 1.69603C24.6955 2.63276 23.9362 3.39196 22.9995 3.39196C12.4635 3.39196 3.89147 11.964 3.89147 22.5C3.89147 33.0366 12.4635 41.608 22.9995 41.608C33.536 41.608 42.1075 33.0366 42.1075 22.5ZM41.8146 6.14913C42.4766 5.48766 43.5507 5.48881 44.2127 6.15194C44.8742 6.81508 44.873 7.88919 44.2094 8.55056L22.6139 30.0895C22.2962 30.4061 21.8649 30.5841 21.4166 30.5841C21.4047 30.5841 21.3927 30.5841 21.3803 30.5836C20.919 30.574 20.4815 30.3767 20.1689 30.0369L11.6324 20.7661C10.9981 20.077 11.0422 19.004 11.7314 18.3697C12.4211 17.7355 13.4935 17.7801 14.1278 18.4687L21.4686 26.4415L41.8146 6.14913Z" fill="white"/>
</svg>
